<svg width="22" height="23" viewBox="0 0 22 23" fill="none" xmlns="http://www.w3.org/2000/svg">
<g clip-path="url(#clip0_47_398)">
<path d="M19.9649 2.41652C17.4884 -0.138971 13.1868 0.196404 10.3187 3.14796C8.65775 4.87157 7.97466 7.02547 7.94409 9.13202C7.8901 12.2726 7.61476 14.0117 4.82426 16.8787L5.96015 18.0433C8.72821 15.1784 10.4042 14.9509 13.4455 14.8299C15.508 14.7574 17.5712 14.1014 19.2484 12.3693C22.1147 9.40754 22.4395 4.96546 19.9649 2.41652ZM18.7777 3.634C20.7135 5.63948 20.4906 8.65541 18.0694 11.1453C15.6321 13.6538 12.7134 13.8925 10.7858 11.8953C8.84375 9.90487 9.06668 6.88238 11.504 4.37383C13.9233 1.87553 16.852 1.64347 18.7777 3.634ZM9.60048 13.1195C9.84804 13.3901 10.1408 13.6084 10.4454 13.8099C9.59413 13.9675 8.79174 14.2652 7.93058 14.8438C8.49099 13.9648 8.77923 13.1279 8.92375 12.247C9.10896 12.5595 9.33845 12.8554 9.60048 13.1195ZM0.390076 21.9825L0.986213 22.6084C1.50632 23.1304 2.26523 23.1304 2.77719 22.6084L6.55947 18.6923C7.07956 18.1552 7.07956 17.3733 6.55947 16.8447L5.96332 16.2188C5.45136 15.6901 4.6861 15.6901 4.17414 16.2188L0.390076 20.1432C-0.130025 20.6635 -0.130025 21.4454 0.390076 21.9825ZM8.85049 9.03855L9.35393 9.55657L16.5246 2.15351L16.0212 1.62338L8.85049 9.03855ZM9.37239 11.372L9.86768 11.8938L18.778 2.70085L18.2908 2.17258L9.37239 11.372ZM10.7793 12.8351L11.2926 13.355L20.2011 4.15367L19.6977 3.62539L10.7793 12.8351ZM13.0506 13.3759L13.5442 13.9024L20.7247 6.489L20.2132 5.96913L13.0506 13.3759ZM15.1491 1.91407L20.3784 7.3057L20.88 6.78767L15.6526 1.39604L15.1491 1.91407ZM12.9506 2.37921L19.9847 9.65989L20.5044 9.12977L13.4558 1.85934L12.9506 2.37921ZM11.5497 3.64097L18.7547 11.0982L19.2745 10.568L12.0549 3.11269L11.5497 3.64097ZM10.2909 4.94086L17.496 12.398L18.0075 11.8679L10.7962 4.41258L10.2909 4.94086ZM9.06906 6.38753L16.1114 13.6682L16.6148 13.1464L9.56614 5.87605L9.06906 6.38753ZM8.60414 8.64106L13.8578 14.0729L14.3694 13.5446L9.10936 8.11934L8.60414 8.64106Z" fill="white" fill-opacity="0.85"/>
</g>
<defs>
<clipPath id="clip0_47_398">
<rect width="22" height="23" fill="white"/>
</clipPath>
</defs>
</svg>
