<svg width="21" height="20" viewBox="0 0 21 20" fill="none" xmlns="http://www.w3.org/2000/svg">
<g clip-path="url(#clip0_47_406)">
<path d="M7.86777 18.0961C5.85494 17.5225 4.1281 16.2485 3.00416 14.5716L6.24258 14.5267L7.66568 12.7633L6.64758 9.72169L4.00468 8.68478L1.58246 10.0085C1.59424 7.97339 2.32875 6.13723 3.54995 4.68908L4.45721 7.58538L6.99866 8.58454L9.69128 6.57808V3.99666L7.26467 2.09044C8.21526 1.74113 9.24394 1.55109 10.3062 1.55109C11.3666 1.55109 12.3953 1.73939 13.3458 2.0887L10.931 3.99492V6.57808L13.6219 8.58454L16.1551 7.58538L17.0624 4.68908C18.2854 6.13723 19.02 7.97339 19.0299 10.0085L16.6077 8.68478L13.9648 9.72169L12.9449 12.7685L14.3679 14.5337L17.601 14.5803C16.4789 16.2519 14.7538 17.5242 12.7428 18.0961L13.4194 15.271L12.1054 13.6485H8.49804L7.19936 15.2623L7.86777 18.0961ZM10.3144 19.9903C16.0097 19.9903 20.6305 15.5126 20.6305 9.99514C20.6305 4.47777 16.0097 0 10.3144 0C4.62078 0 0 4.47777 0 9.99514C0 15.5126 4.62078 19.9903 10.3144 19.9903Z" fill="white" fill-opacity="0.85"/>
</g>
<defs>
<clipPath id="clip0_47_406">
<rect width="21" height="20" fill="white"/>
</clipPath>
</defs>
</svg>
