<svg width="29" height="20" viewBox="0 0 29 20" fill="none" xmlns="http://www.w3.org/2000/svg">
<g clip-path="url(#clip0_47_410)">
<path d="M20.744 7.69804C22.2225 7.69804 23.4134 6.22879 23.4134 4.41607C23.4134 2.60335 22.2225 1.14343 20.744 1.14343C19.2654 1.14343 18.067 2.60335 18.067 4.41607C18.067 6.22879 19.2654 7.69804 20.744 7.69804ZM10.2375 9.80141C11.7087 10.4886 12.5218 11.7373 14.2739 11.7373C16.3225 11.7373 17.0032 10.0576 19.0217 9.51602L12.1605 0.778082C11.6154 0.0780309 10.7838 -0.0147643 10.1209 0.577899L5.3945 4.6787C4.56071 5.40792 4.63855 6.49901 5.1241 7.15528C5.53398 7.70679 6.25851 7.9242 6.95924 7.32629L10.7578 4.03816L12.8679 6.70065C13.1102 7.00704 13.1644 7.44359 12.8062 7.73949L10.2375 9.80141ZM0.73929 15.7677H1.98414C5.23668 15.7677 5.9498 13.3591 8.13007 13.3591C10.2332 13.3591 11.0192 15.7677 14.2739 15.7677C17.5405 15.7677 18.3167 13.3591 20.4296 13.3591C22.6077 13.3591 23.3132 15.7677 26.5755 15.7677H27.8203C28.2299 15.7677 28.5596 15.3782 28.5596 14.876C28.5596 14.3738 28.2299 13.9696 27.8203 13.9696H26.5755C24.3141 13.9696 23.5512 11.561 20.4296 11.561C17.3732 11.561 16.5354 13.9696 14.2739 13.9696C12.0146 13.9696 11.1865 11.561 8.13007 11.561C5.00843 11.561 4.24343 13.9696 1.98414 13.9696H0.73929C0.319899 13.9696 0 14.3738 0 14.876C0 15.3782 0.319899 15.7677 0.73929 15.7677ZM1.01444 19.9998C1.42432 19.9998 1.75088 19.6021 1.75088 19.097C1.75088 18.6038 1.42432 18.2035 1.01444 18.2035C0.612189 18.2035 0.285625 18.6038 0.285625 19.097C0.285625 19.6021 0.612189 19.9998 1.01444 19.9998ZM3.28397 19.5011C3.68408 19.5011 4.01064 19.1128 4.01064 18.6077C4.01064 18.1051 3.68408 17.7167 3.28397 17.7167C2.87196 17.7167 2.54539 18.1051 2.54539 18.6077C2.54539 19.1128 2.87196 19.5011 3.28397 19.5011ZM5.38808 18.289C5.80009 18.289 6.12665 17.8886 6.12665 17.3861C6.12665 16.8929 5.80009 16.4927 5.38808 16.4927C4.98797 16.4927 4.6614 16.8929 4.6614 17.3861C4.6614 17.8886 4.98797 18.289 5.38808 18.289ZM7.6588 17.593C8.06866 17.593 8.39522 17.1926 8.39522 16.6902C8.39522 16.197 8.06866 15.7966 7.6588 15.7966C7.25654 15.7966 6.92997 16.197 6.92997 16.6902C6.92997 17.1926 7.25654 17.593 7.6588 17.593ZM9.92522 18.289C10.3372 18.289 10.654 17.8886 10.654 17.3861C10.654 16.8929 10.3372 16.4927 9.92522 16.4927C9.51322 16.4927 9.19854 16.8929 9.19854 17.3861C9.19854 17.8886 9.51322 18.289 9.92522 18.289ZM12.051 19.5011C12.4609 19.5011 12.7875 19.1128 12.7875 18.6077C12.7875 18.1051 12.4609 17.7167 12.051 17.7167C11.6487 17.7167 11.3222 18.1051 11.3222 18.6077C11.3222 19.1128 11.6487 19.5011 12.051 19.5011ZM14.2956 19.9998C14.6957 19.9998 15.0223 19.6021 15.0223 19.097C15.0223 18.6038 14.6957 18.2035 14.2956 18.2035C13.8835 18.2035 13.5569 18.6038 13.5569 19.097C13.5569 19.6021 13.8835 19.9998 14.2956 19.9998ZM16.5282 19.5011C16.9402 19.5011 17.2569 19.1128 17.2569 18.6077C17.2569 18.1051 16.9402 17.7167 16.5282 17.7167C16.1183 17.7167 15.8015 18.1051 15.8015 18.6077C15.8015 19.1128 16.1183 19.5011 16.5282 19.5011ZM18.6539 18.289C19.0659 18.289 19.3903 17.8886 19.3903 17.3861C19.3903 16.8929 19.0659 16.4927 18.6539 16.4927C18.2517 16.4927 17.9251 16.8929 17.9251 17.3861C17.9251 17.8886 18.2517 18.289 18.6539 18.289ZM20.9204 17.593C21.3324 17.593 21.6491 17.1926 21.6491 16.6902C21.6491 16.197 21.3324 15.7966 20.9204 15.7966C20.5105 15.7966 20.1937 16.197 20.1937 16.6902C20.1937 17.1926 20.5105 17.593 20.9204 17.593ZM23.1911 18.289C23.6009 18.289 23.9178 17.8886 23.9178 17.3861C23.9178 16.8929 23.6009 16.4927 23.1911 16.4927C22.7791 16.4927 22.4622 16.8929 22.4622 17.3861C22.4622 17.8886 22.7791 18.289 23.1911 18.289ZM25.3049 19.5011C25.7169 19.5011 26.0338 19.1128 26.0338 18.6077C26.0338 18.1051 25.7169 17.7167 25.3049 17.7167C24.895 17.7167 24.5783 18.1051 24.5783 18.6077C24.5783 19.1128 24.895 19.5011 25.3049 19.5011ZM27.5549 19.9998C27.9669 19.9998 28.2935 19.6021 28.2935 19.097C28.2935 18.6038 27.9669 18.2035 27.5549 18.2035C27.1548 18.2035 26.8282 18.6038 26.8282 19.097C26.8282 19.6021 27.1548 19.9998 27.5549 19.9998Z" fill="white" fill-opacity="0.85"/>
</g>
<defs>
<clipPath id="clip0_47_410">
<rect width="29" height="20" fill="white"/>
</clipPath>
</defs>
</svg>
