<svg width="19" height="20" viewBox="0 0 19 20" fill="none" xmlns="http://www.w3.org/2000/svg">
<g clip-path="url(#clip0_47_418)">
<path d="M8.75117 3.80866C9.81253 3.80866 10.6742 2.95914 10.6742 1.89737C10.6742 0.849519 9.81253 0 8.75117 0C7.6726 0 6.81244 0.849519 6.81244 1.89737C6.81244 2.95914 7.6726 3.80866 8.75117 3.80866ZM0.706376 19.6035C1.05223 19.9314 1.62114 19.9938 2.02022 19.6035L5.83257 15.8535C6.07749 15.6206 6.12211 15.427 6.09627 15.0867L5.88717 12.7736C5.86839 12.61 6.0272 12.5406 6.14139 12.6416L8.7789 14.8789L10.1951 19.2185C10.368 19.747 10.9111 19.9514 11.3704 19.8179C11.8947 19.666 12.1428 19.1476 11.98 18.6562L10.5059 14.0736C10.4613 13.9432 10.3823 13.7896 10.2681 13.6902L7.34948 10.8422L9.22142 7.14985C9.29117 7.01079 9.45582 6.98141 9.57258 7.09654L11.6839 9.19343C11.7832 9.29141 11.9303 9.37391 12.0713 9.41634L16.3118 10.6682C16.6749 10.7746 17.2797 10.6342 17.4715 10.0363C17.6155 9.55344 17.3346 9.02807 16.8392 8.8861L12.835 7.72074L10.5499 5.44403C10.0207 4.92239 9.41102 4.69554 8.68933 4.69554H2.63029C2.26876 4.69554 1.95184 4.89455 1.79613 5.20545L0.0997481 8.53629C-0.124852 8.97912 0.0363642 9.54301 0.5176 9.766C0.99419 9.99048 1.54036 9.81999 1.77512 9.34861L3.19919 6.54315H4.96397C5.14344 6.54315 5.24696 6.70854 5.16308 6.87546L3.85182 9.46937C3.37747 10.3961 3.24984 11.4803 3.51129 12.4974L4.12981 14.9063L0.690702 18.2812C0.327622 18.6322 0.334684 19.237 0.706376 19.6035ZM16.5755 15.7619C17.7433 15.7619 18.6809 14.829 18.6809 13.6862C18.6809 12.5404 17.7433 11.6145 16.5755 11.6145C15.4148 11.6145 14.4756 12.5404 14.4756 13.6862C14.4756 14.829 15.4148 15.7619 16.5755 15.7619Z" fill="white" fill-opacity="0.85"/>
</g>
<defs>
<clipPath id="clip0_47_418">
<rect width="19" height="20" fill="white"/>
</clipPath>
</defs>
</svg>
