<svg width="19" height="24" viewBox="0 0 19 24" fill="none" xmlns="http://www.w3.org/2000/svg">
<g clip-path="url(#clip0_47_402)">
<path d="M11.6203 4.79731C12.9782 4.79731 14.0717 3.72684 14.0717 2.39769C14.0717 1.06854 12.9782 0 11.6203 0C10.2624 0 9.17083 1.06854 9.17083 2.39769C9.17083 3.72684 10.2624 4.79731 11.6203 4.79731ZM7.80184 14.2338L11.9877 16.5358L9.29609 18.7981C8.70503 19.2872 8.69432 19.9511 9.0716 20.3651C9.45981 20.7899 10.1341 20.8688 10.751 20.3564L14.5668 17.1726C15.106 16.7216 15.0217 15.763 14.3732 15.3498L10.2471 12.7027L11.0579 9.92411C11.1613 9.55331 11.5978 9.50174 11.8244 9.82676L13.0424 11.5723C13.3384 11.9874 13.8815 12.1498 14.3673 11.93L17.8751 10.4023C18.5127 10.1214 18.754 9.56828 18.4779 8.99765C18.1949 8.44155 17.6428 8.27145 17.0051 8.54854L14.256 9.73797L12.3594 7.17531C11.3521 5.81599 10.0985 5.26653 8.05999 5.41631L4.17465 5.68569C3.54097 5.73041 3.10402 6.1348 3.01265 6.7784L2.4911 10.6332C2.39077 11.3254 2.74729 11.8105 3.38184 11.8785C4.01944 11.9338 4.43257 11.5742 4.52591 10.882L4.99586 7.76114L6.52508 7.65416C6.85209 7.62592 7.16336 7.8478 7.051 8.23807L6.14693 11.3344C5.6066 13.1963 6.84815 13.7038 7.80184 14.2338ZM0.393786 23.5811C0.827675 23.9416 1.48212 23.967 2.04934 23.4313L5.63173 19.9567C5.93863 19.6582 6.00617 19.5863 6.19196 19.1293L7.66457 15.3981L7.25866 15.1806C6.41624 14.7343 5.82125 14.2752 5.41599 13.7862L4.12328 18.2651L0.411709 21.8837C-0.181311 22.4515 -0.0857887 23.1728 0.393786 23.5811Z" fill="white" fill-opacity="0.85"/>
</g>
<defs>
<clipPath id="clip0_47_402">
<rect width="19" height="24" fill="white"/>
</clipPath>
</defs>
</svg>
