<svg width="27" height="20" viewBox="0 0 27 20" fill="none" xmlns="http://www.w3.org/2000/svg">
<g clip-path="url(#clip0_47_414)">
<path d="M13.3146 15.7525C13.908 15.7525 14.3934 15.2741 14.3934 14.6853V9.52878C14.3934 9.27441 14.2975 9.03485 14.0933 8.8044L11.3958 5.82815C11.2502 5.66385 11.3519 5.42103 11.5769 5.42103H14.8795C15.2554 5.42103 15.3636 5.67215 15.3636 5.94053V8.4916C15.3636 9.07865 15.8509 9.55232 16.4444 9.55232H20.6228C21.2145 9.55232 21.6915 9.07865 21.6915 8.4916C21.6915 7.90638 21.2145 7.42439 20.6228 7.42439H17.5232V3.83939C17.5232 2.6669 16.583 1.735 15.3959 1.735H10.3096C9.23413 1.735 8.2873 2.38028 7.86424 3.3491C7.45326 4.34003 7.68622 5.44617 8.44479 6.20484L12.2356 9.97668V14.6853C12.2356 15.2741 12.721 15.7525 13.3146 15.7525ZM5.6933 19.8984C8.85269 19.8984 11.3932 17.3854 11.3932 14.2585C11.3932 11.138 8.85269 8.61677 5.6933 8.61677C2.54048 8.61677 0 11.138 0 14.2585C0 17.3854 2.54048 19.8984 5.6933 19.8984ZM5.6933 18.3259C3.42907 18.3259 1.58974 16.5047 1.58974 14.2585C1.58974 12.0105 3.42907 10.1911 5.6933 10.1911C7.96595 10.1911 9.80527 12.0105 9.80527 14.2585C9.80527 16.5047 7.96595 18.3259 5.6933 18.3259ZM23.6643 11.2404C24.4929 11.9791 25.0309 13.0534 25.0309 14.2585C25.0309 16.5047 23.1897 18.3259 20.9273 18.3259C18.6547 18.3259 16.8153 16.5047 16.8153 14.2585C16.8153 13.6887 16.9263 13.14 17.1417 12.6531C17.3997 12.0598 17.1305 11.6341 16.7422 11.4997C16.3761 11.3606 15.9338 11.4813 15.7289 11.9576C15.4055 12.6701 15.2274 13.4427 15.2274 14.2585C15.2274 17.3854 17.768 19.8984 20.9273 19.8984C24.0802 19.8984 26.6206 17.3854 26.6206 14.2585C26.6206 12.5604 25.8742 11.0616 24.671 10.0189C24.2565 9.6651 23.7797 9.7572 23.5031 10.053C23.2348 10.3505 23.1864 10.8222 23.6643 11.2404ZM20.8259 4.55646C22.0913 4.55646 23.1174 3.53511 23.1174 2.27499C23.1174 1.02319 22.0913 0 20.8259 0C19.5435 0 18.511 1.02319 18.511 2.27499C18.511 3.53511 19.5435 4.55646 20.8259 4.55646Z" fill="white" fill-opacity="0.85"/>
</g>
<defs>
<clipPath id="clip0_47_414">
<rect width="27" height="20" fill="white"/>
</clipPath>
</defs>
</svg>
